<svg viewBox="0 0 330 200" xmlns="http://www.w3.org/2000/svg"><g><g><g><g><g><line x1="51.5625" y1="172.33954945410875" x2="46.5625" y2="172.33954945410875" style="visibility: inherit;" fill="rgb(0, 0, 0)" stroke="rgb(204, 204, 204)" stroke-width="1px"></line><line x1="51.5625" y1="158.3445012294628" x2="46.5625" y2="158.3445012294628" style="visibility: inherit;" fill="rgb(0, 0, 0)" stroke="rgb(204, 204, 204)" stroke-width="1px"></line><line x1="51.5625" y1="144.34945300481687" x2="46.5625" y2="144.34945300481687" style="visibility: inherit;" fill="rgb(0, 0, 0)" stroke="rgb(204, 204, 204)" stroke-width="1px"></line><line x1="51.5625" y1="130.35440478017094" x2="46.5625" y2="130.35440478017094" style="visibility: inherit;" fill="rgb(0, 0, 0)" stroke="rgb(204, 204, 204)" stroke-width="1px"></line><line x1="51.5625" y1="116.35935655552498" x2="46.5625" y2="116.35935655552498" style="visibility: inherit;" fill="rgb(0, 0, 0)" stroke="rgb(204, 204, 204)" stroke-width="1px"></line><line x1="51.5625" y1="102.36430833087906" x2="46.5625" y2="102.36430833087906" style="visibility: inherit;" fill="rgb(0, 0, 0)" stroke="rgb(204, 204, 204)" stroke-width="1px"></line><line x1="51.5625" y1="88.36926010623311" x2="46.5625" y2="88.36926010623311" style="visibility: inherit;" fill="rgb(0, 0, 0)" stroke="rgb(204, 204, 204)" stroke-width="1px"></line><line x1="51.5625" y1="74.37421188158717" x2="46.5625" y2="74.37421188158717" style="visibility: inherit;" fill="rgb(0, 0, 0)" stroke="rgb(204, 204, 204)" stroke-width="1px"></line><line x1="51.5625" y1="60.37916365694124" x2="46.5625" y2="60.37916365694124" style="visibility: inherit;" fill="rgb(0, 0, 0)" stroke="rgb(204, 204, 204)" stroke-width="1px"></line><line x1="51.5625" y1="46.384115432295296" x2="46.5625" y2="46.384115432295296" style="visibility: inherit;" fill="rgb(0, 0, 0)" stroke="rgb(204, 204, 204)" stroke-width="1px"></line><line x1="51.5625" y1="32.38906720764936" x2="46.5625" y2="32.38906720764936" style="visibility: inherit;" fill="rgb(0, 0, 0)" stroke="rgb(204, 204, 204)" stroke-width="1px"></line><line x1="51.5625" y1="18.39401898300342" x2="46.5625" y2="18.39401898300342" style="visibility: inherit;" fill="rgb(0, 0, 0)" stroke="rgb(204, 204, 204)" stroke-width="1px"></line><line x1="51.5625" y1="4.398970758357463" x2="46.5625" y2="4.398970758357463" style="visibility: inherit;" fill="rgb(0, 0, 0)" stroke="rgb(204, 204, 204)" stroke-width="1px"></line></g><g transform="translate(41.5625, 0)"><text x="0" y="172.33954945410875" dx="0em" dy="0.3em" style="text-anchor: end; visibility: inherit; font-family: Roboto, sans-serif; font-size: 12px; font-weight: 200;" fill="rgb(50, 49, 63)" stroke="none" stroke-width="1px">-0.5</text><text x="0" y="158.3445012294628" dx="0em" dy="0.3em" style="text-anchor: end; visibility: hidden; font-family: Roboto, sans-serif; font-size: 12px; font-weight: 200;" fill="rgb(50, 49, 63)" stroke="none" stroke-width="1px">0</text><text x="0" y="144.34945300481687" dx="0em" dy="0.3em" style="text-anchor: end; visibility: inherit; font-family: Roboto, sans-serif; font-size: 12px; font-weight: 200;" fill="rgb(50, 49, 63)" stroke="none" stroke-width="1px">0.5</text><text x="0" y="130.35440478017094" dx="0em" dy="0.3em" style="text-anchor: end; visibility: hidden; font-family: Roboto, sans-serif; font-size: 12px; font-weight: 200;" fill="rgb(50, 49, 63)" stroke="none" stroke-width="1px">1</text><text x="0" y="116.35935655552498" dx="0em" dy="0.3em" style="text-anchor: end; visibility: inherit; font-family: Roboto, sans-serif; font-size: 12px; font-weight: 200;" fill="rgb(50, 49, 63)" stroke="none" stroke-width="1px">1.5</text><text x="0" y="102.36430833087906" dx="0em" dy="0.3em" style="text-anchor: end; visibility: hidden; font-family: Roboto, sans-serif; font-size: 12px; font-weight: 200;" fill="rgb(50, 49, 63)" stroke="none" stroke-width="1px">2</text><text x="0" y="88.36926010623311" dx="0em" dy="0.3em" style="text-anchor: end; visibility: inherit; font-family: Roboto, sans-serif; font-size: 12px; font-weight: 200;" fill="rgb(50, 49, 63)" stroke="none" stroke-width="1px">2.5</text><text x="0" y="74.37421188158717" dx="0em" dy="0.3em" style="text-anchor: end; visibility: hidden; font-family: Roboto, sans-serif; font-size: 12px; font-weight: 200;" fill="rgb(50, 49, 63)" stroke="none" stroke-width="1px">3</text><text x="0" y="60.37916365694124" dx="0em" dy="0.3em" style="text-anchor: end; visibility: inherit; font-family: Roboto, sans-serif; font-size: 12px; font-weight: 200;" fill="rgb(50, 49, 63)" stroke="none" stroke-width="1px">3.5</text><text x="0" y="46.384115432295296" dx="0em" dy="0.3em" style="text-anchor: end; visibility: hidden; font-family: Roboto, sans-serif; font-size: 12px; font-weight: 200;" fill="rgb(50, 49, 63)" stroke="none" stroke-width="1px">4</text><text x="0" y="32.38906720764936" dx="0em" dy="0.3em" style="text-anchor: end; visibility: inherit; font-family: Roboto, sans-serif; font-size: 12px; font-weight: 200;" fill="rgb(50, 49, 63)" stroke="none" stroke-width="1px">4.5</text><text x="0" y="18.39401898300342" dx="0em" dy="0.3em" style="text-anchor: end; visibility: hidden; font-family: Roboto, sans-serif; font-size: 12px; font-weight: 200;" fill="rgb(50, 49, 63)" stroke="none" stroke-width="1px">5</text><text x="0" y="4.398970758357463" dx="0em" dy="0.3em" style="text-anchor: end; visibility: hidden; font-family: Roboto, sans-serif; font-size: 12px; font-weight: 200;" fill="rgb(50, 49, 63)" stroke="none" stroke-width="1px">5.5</text></g><line x1="51.5625" y1="0" x2="51.5625" y2="178" fill="rgb(0, 0, 0)" stroke="rgb(204, 204, 204)" stroke-width="1px"></line></g></g><g transform="translate(51, 0)" clip-path="url(#clip_0)"><clipPath id="clip_0"><rect width="278" height="177"></rect></clipPath><g><g><g><line x1="1.6072385199565726" y1="0" x2="1.6072385199565726" y2="178" fill="rgb(0, 0, 0)" stroke="rgb(60, 60, 60)" stroke-width="1px" opacity="0.25"></line><line x1="38.09362653540368" y1="0" x2="38.09362653540368" y2="178" fill="rgb(0, 0, 0)" stroke="rgb(60, 60, 60)" stroke-width="1px" opacity="0.25"></line><line x1="74.58001455085079" y1="0" x2="74.58001455085079" y2="178" fill="rgb(0, 0, 0)" stroke="rgb(60, 60, 60)" stroke-width="1px" opacity="0.25"></line><line x1="111.0664025662979" y1="0" x2="111.0664025662979" y2="178" fill="rgb(0, 0, 0)" stroke="rgb(60, 60, 60)" stroke-width="1px" opacity="0.25"></line><line x1="147.552790581745" y1="0" x2="147.552790581745" y2="178" fill="rgb(0, 0, 0)" stroke="rgb(60, 60, 60)" stroke-width="1px" opacity="0.25"></line><line x1="184.03917859719212" y1="0" x2="184.03917859719212" y2="178" fill="rgb(0, 0, 0)" stroke="rgb(60, 60, 60)" stroke-width="1px" opacity="0.25"></line><line x1="220.52556661263924" y1="0" x2="220.52556661263924" y2="178" fill="rgb(0, 0, 0)" stroke="rgb(60, 60, 60)" stroke-width="1px" opacity="0.25"></line><line x1="257.01195462808636" y1="0" x2="257.01195462808636" y2="178" fill="rgb(0, 0, 0)" stroke="rgb(60, 60, 60)" stroke-width="1px" opacity="0.25"></line></g><g><line x1="0" y1="172.33954945410875" x2="278.4375" y2="172.33954945410875" fill="rgb(0, 0, 0)" stroke="rgb(60, 60, 60)" stroke-width="1px" opacity="0.25"></line><line x1="0" y1="158.3445012294628" x2="278.4375" y2="158.3445012294628" fill="rgb(0, 0, 0)" stroke="rgb(60, 60, 60)" stroke-width="1px" opacity="0.25"></line><line x1="0" y1="144.34945300481687" x2="278.4375" y2="144.34945300481687" fill="rgb(0, 0, 0)" stroke="rgb(60, 60, 60)" stroke-width="1px" opacity="0.25"></line><line x1="0" y1="130.35440478017094" x2="278.4375" y2="130.35440478017094" fill="rgb(0, 0, 0)" stroke="rgb(60, 60, 60)" stroke-width="1px" opacity="0.25"></line><line x1="0" y1="116.35935655552498" x2="278.4375" y2="116.35935655552498" fill="rgb(0, 0, 0)" stroke="rgb(60, 60, 60)" stroke-width="1px" opacity="0.25"></line><line x1="0" y1="102.36430833087906" x2="278.4375" y2="102.36430833087906" fill="rgb(0, 0, 0)" stroke="rgb(60, 60, 60)" stroke-width="1px" opacity="0.25"></line><line x1="0" y1="88.36926010623311" x2="278.4375" y2="88.36926010623311" fill="rgb(0, 0, 0)" stroke="rgb(60, 60, 60)" stroke-width="1px" opacity="0.25"></line><line x1="0" y1="74.37421188158717" x2="278.4375" y2="74.37421188158717" fill="rgb(0, 0, 0)" stroke="rgb(60, 60, 60)" stroke-width="1px" opacity="0.25"></line><line x1="0" y1="60.37916365694124" x2="278.4375" y2="60.37916365694124" fill="rgb(0, 0, 0)" stroke="rgb(60, 60, 60)" stroke-width="1px" opacity="0.25"></line><line x1="0" y1="46.384115432295296" x2="278.4375" y2="46.384115432295296" fill="rgb(0, 0, 0)" stroke="rgb(60, 60, 60)" stroke-width="1px" opacity="0.25"></line><line x1="0" y1="32.38906720764936" x2="278.4375" y2="32.38906720764936" fill="rgb(0, 0, 0)" stroke="rgb(60, 60, 60)" stroke-width="1px" opacity="0.25"></line><line x1="0" y1="18.39401898300342" x2="278.4375" y2="18.39401898300342" fill="rgb(0, 0, 0)" stroke="rgb(60, 60, 60)" stroke-width="1px" opacity="0.25"></line><line x1="0" y1="4.398970758357463" x2="278.4375" y2="4.398970758357463" fill="rgb(0, 0, 0)" stroke="rgb(60, 60, 60)" stroke-width="1px" opacity="0.25"></line></g></g></g><g><g><line x1="0" y1="158.3445012294628" x2="278.4375" y2="158.3445012294628" fill="rgb(0, 0, 0)" stroke="rgb(153, 153, 153)" stroke-width="1.5px"></line></g></g><g><g><line x1="1.6072385199565726" y1="0" x2="1.6072385199565726" y2="178" fill="rgb(0, 0, 0)" stroke="rgb(153, 153, 153)" stroke-width="1.5px"></line></g></g><g><g><g><g><g><path stroke="rgb(255, 112, 67)" stroke-width="2px" d="M3.0156130973528312,-43.324642259923515L4.745067889285024,3.2469180989674604L6.474522681217216,34.070996271736284L8.189382917943231,49.068314330414935L9.911540432272334,61.92190171195314L11.611806113792168,65.89973520832183L13.341260905724361,73.67646154501735L15.048823864847288,82.61447584980526L16.77098137917639,89.67641625830349L18.500436171108586,93.5181369841848L20.200701852628416,96.02308593809181L21.92285936695752,96.77787745381495L23.637719603683536,95.73904155508274L25.35257984040955,98.9925876456149L27.082034632341742,101.80376930118041L28.789597591464666,101.74315794810751L30.51175510579377,101.58042241966537L32.24120989772596,105.0412104423612L33.97066468965816,105.93419239626085L35.69282220398726,108.51287229648989L37.39308788550709,109.01477694042883L39.12983995504238,107.02031641522115L40.85199746937148,110.14259252194101L42.581452261303674,113.30465721395245L44.30360977563278,113.99432959667404L46.011172734755704,112.61895620631468L47.7333302490848,111.64330965117203L49.455487763413906,116.03943392715148L51.17764527774301,117.06260055432078L52.899802792072116,117.98945527461156L54.60736575119504,120.667075549416L56.329523265524145,121.17859478924578L58.05168077985324,118.50886215002359L59.77383829418235,119.30915544879363L61.49599580851145,121.37063884785769L63.20355876763438,121.12230351433479L64.91841900436039,121.1372854796394L66.6405765186895,122.6532704761713L68.3627340330186,122.28898150134374L70.07759426974462,123.81693211199422L71.78515722886755,124.08470549703937L73.50731474319664,122.41329825984394L75.23676953512884,123.79305126009923L76.94433249425177,119.99860668440698L78.65919273097778,120.8715452267417L80.10405369638949,121.42885505799279L81.8845894315433,123.64200906835492L83.65782788909404,123.84364265291997L85.42376906904165,123.131049978229L87.18241297138621,124.62243710418092L88.92646231852459,121.95767163891247L90.67780894326604,119.26304145006475L92.40726373519824,117.37978894426013L94.12212397192425,118.36911910835406L95.82968693104718,120.73539752503808L97.52995261256702,120.10121316435394L99.2594074044992,120.51451926408313L100.98156491882831,121.08596338762295L102.70372243315741,118.11159068093556L104.42587994748652,114.07365401408431L106.14074018421253,114.99622425087824L107.8847895313509,116.63888963640876L109.62154160088619,119.00347365866565L111.35099639281839,118.67022174137327L113.10234301755985,119.21092357321258L114.83909508709513,120.8406052373229L116.57584715663042,120.85895287506364L118.31259922616569,121.04534416049115L120.05664857330406,121.92694332624325L121.80069792044243,122.80553924149535L123.53015271237463,123.87344913265308L125.26690478190991,124.79977445441659L127.0036568514452,125.09454372704127L128.74770619858356,125.23159306317851L130.48445826811886,125.0109454462814L132.21391306005106,125.18466431571399L133.95796240718943,125.97639393344134L135.70930903193087,126.57603931098326L137.45335837906924,127.89383276402265L139.19011044860454,128.49089352995966L140.9195652405367,128.37771369588273L142.6490200324689,126.59002764969642L144.39306937960728,124.1430665368944L146.12982144914258,123.67662535672356L147.87387079628095,124.87713321061612" style="fill: none;" fill="none"></path></g></g></g></g><g opacity="0.2"><g><g><g><path stroke="rgb(255, 112, 67)" stroke-width="2px" d="M1.614535797559662,-179.9125588287631L3.0156130973528312,68.13109766024958L4.745067889285024,72.2592642461522L6.474522681217216,96.49574973150148L8.189382917943231,86.09007443184973L9.911540432272334,98.30197443175167L11.611806113792168,78.3326949675775L13.341260905724361,99.85648002960319L15.048823864847288,114.4608826768016L16.77098137917639,115.97107049737235L18.500436171108586,108.3253596863342L20.200701852628416,105.9455030543889L21.92285936695752,99.83348363440525L23.637719603683536,91.45966597697621L25.35257984040955,112.58403715467614L27.082034632341742,113.68039329874904L28.789597591464666,101.4847462647509L30.51175510579377,100.88148128230816L32.24120989772596,119.99416838211602L33.97066468965816,109.8112297866202L35.69282220398726,119.75283969971825L37.39308788550709,111.20949870299347L39.12983995504238,98.27621526591768L40.85199746937148,123.86031887264537L42.581452261303674,127.22121266804317L44.30360977563278,117.03391970578396L46.011172734755704,106.5503229294843L47.7333302490848,107.33438589129443L49.455487763413906,135.46963457272506L51.17764527774301,121.58765307002876L52.899802792072116,122.09063748641252L54.60736575119504,132.5200115522995L56.329523265524145,123.44368438535727L58.05168077985324,106.68360325591874L59.77383829418235,122.85475377809884L61.49599580851145,130.50545292500772L63.20355876763438,120.02171934484807L64.91841900436039,121.20369134852393L66.6405765186895,129.37337095339794L68.3627340330186,120.67402016940179L70.07759426974462,130.59107212129018L71.78515722886755,125.27193784374687L73.50731474319664,115.00241908826905L75.23676953512884,129.91098009307956L76.94433249425177,103.1732595851705L78.65919273097778,124.7424268252413L80.10405369638949,123.90018885613637L81.8845894315433,133.45617204465302L83.65782788909404,124.7377921773989L85.42376906904165,119.97100515294248L87.18241297138621,131.23616071307836L88.92646231852459,110.14038654713751L90.67780894326604,107.31324802658476L92.40726373519824,109.02814780858665L94.12212397192425,122.75650858654228L95.82968693104718,131.22918204787862L97.52995261256702,117.2887752869241L99.2594074044992,122.34742500499024L100.98156491882831,123.6201747114744L102.70372243315741,104.92097561017465L104.42587994748652,96.16637275013633L106.14074018421253,119.08760590537533L107.8847895313509,123.9237291300948L109.62154160088619,129.4898611085271L111.35099639281839,117.19232522894508L113.10234301755985,121.60881429149501L114.83909508709513,128.06787841086077L116.57584715663042,120.9403205612687L118.31259922616569,121.87194817450488L120.05664857330406,125.83664082106739L121.80069792044243,126.70191856220389L123.53015271237463,128.60939480225113L125.26690478190991,128.90782408114083L127.0036568514452,126.40178090340399L128.74770619858356,125.83937689826737L130.48445826811886,124.032421465204L132.21391306005106,125.9550695869931L133.95796240718943,129.48754211626613L135.70930903193087,129.23533585865866L137.45335837906924,133.7379596344757L139.19011044860454,131.138728002983L140.9195652405367,127.87578577134468L142.6490200324689,118.66202911699459L144.39306937960728,113.29132645759054L146.12982144914258,121.60806020192526L147.87387079628095,130.20112439674048" style="fill: none;" fill="none"></path></g></g></g></g></g></g><g transform="translate(51, 178)" clip-path="url(#clip_1)"><clipPath id="clip_1"><rect width="278" height="21"></rect></clipPath><g><g><line x1="1.6072385199565726" y1="0" x2="1.6072385199565726" y2="5" style="visibility: inherit;" fill="rgb(0, 0, 0)" stroke="rgb(204, 204, 204)" stroke-width="1px"></line><line x1="38.09362653540368" y1="0" x2="38.09362653540368" y2="5" style="visibility: inherit;" fill="rgb(0, 0, 0)" stroke="rgb(204, 204, 204)" stroke-width="1px"></line><line x1="74.58001455085079" y1="0" x2="74.58001455085079" y2="5" style="visibility: inherit;" fill="rgb(0, 0, 0)" stroke="rgb(204, 204, 204)" stroke-width="1px"></line><line x1="111.0664025662979" y1="0" x2="111.0664025662979" y2="5" style="visibility: inherit;" fill="rgb(0, 0, 0)" stroke="rgb(204, 204, 204)" stroke-width="1px"></line><line x1="147.552790581745" y1="0" x2="147.552790581745" y2="5" style="visibility: inherit;" fill="rgb(0, 0, 0)" stroke="rgb(204, 204, 204)" stroke-width="1px"></line><line x1="184.03917859719212" y1="0" x2="184.03917859719212" y2="5" style="visibility: inherit;" fill="rgb(0, 0, 0)" stroke="rgb(204, 204, 204)" stroke-width="1px"></line><line x1="220.52556661263924" y1="0" x2="220.52556661263924" y2="5" style="visibility: inherit;" fill="rgb(0, 0, 0)" stroke="rgb(204, 204, 204)" stroke-width="1px"></line><line x1="257.01195462808636" y1="0" x2="257.01195462808636" y2="5" style="visibility: inherit;" fill="rgb(0, 0, 0)" stroke="rgb(204, 204, 204)" stroke-width="1px"></line></g><g transform="translate(0, 8)"><text x="1.6072385199565726" y="0" dx="0em" dy="0.95em" style="text-anchor: middle; visibility: inherit; font-family: Roboto, sans-serif; font-size: 12px; font-weight: 200;" fill="rgb(50, 49, 63)" stroke="none" stroke-width="1px">0</text><text x="38.09362653540368" y="0" dx="0em" dy="0.95em" style="text-anchor: middle; visibility: inherit; font-family: Roboto, sans-serif; font-size: 12px; font-weight: 200;" fill="rgb(50, 49, 63)" stroke="none" stroke-width="1px">5k</text><text x="74.58001455085079" y="0" dx="0em" dy="0.95em" style="text-anchor: middle; visibility: inherit; font-family: Roboto, sans-serif; font-size: 12px; font-weight: 200;" fill="rgb(50, 49, 63)" stroke="none" stroke-width="1px">10k</text><text x="111.0664025662979" y="0" dx="0em" dy="0.95em" style="text-anchor: middle; visibility: inherit; font-family: Roboto, sans-serif; font-size: 12px; font-weight: 200;" fill="rgb(50, 49, 63)" stroke="none" stroke-width="1px">15k</text><text x="147.552790581745" y="0" dx="0em" dy="0.95em" style="text-anchor: middle; visibility: inherit; font-family: Roboto, sans-serif; font-size: 12px; font-weight: 200;" fill="rgb(50, 49, 63)" stroke="none" stroke-width="1px">20k</text><text x="184.03917859719212" y="0" dx="0em" dy="0.95em" style="text-anchor: middle; visibility: inherit; font-family: Roboto, sans-serif; font-size: 12px; font-weight: 200;" fill="rgb(50, 49, 63)" stroke="none" stroke-width="1px">25k</text><text x="220.52556661263924" y="0" dx="0em" dy="0.95em" style="text-anchor: middle; visibility: inherit; font-family: Roboto, sans-serif; font-size: 12px; font-weight: 200;" fill="rgb(50, 49, 63)" stroke="none" stroke-width="1px">30k</text><text x="257.01195462808636" y="0" dx="0em" dy="0.95em" style="text-anchor: middle; visibility: inherit; font-family: Roboto, sans-serif; font-size: 12px; font-weight: 200;" fill="rgb(50, 49, 63)" stroke="none" stroke-width="1px">35k</text></g><line x1="0" y1="0" x2="278.4375" y2="0" fill="rgb(0, 0, 0)" stroke="rgb(204, 204, 204)" stroke-width="1px"></line></g></g></g></g></svg>