<svg viewBox="0 0 330.0000305175781 200.00001525878906" xmlns="http://www.w3.org/2000/svg"><g><g><g><g><g><line x1="20.390625" y1="157.2590003452834" x2="15.390625" y2="157.2590003452834" style="visibility: inherit;" fill="rgb(0, 0, 0)" stroke="rgb(204, 204, 204)" stroke-width="1px"></line><line x1="20.390625" y1="136.0214020960232" x2="15.390625" y2="136.0214020960232" style="visibility: inherit;" fill="rgb(0, 0, 0)" stroke="rgb(204, 204, 204)" stroke-width="1px"></line><line x1="20.390625" y1="114.78380384676302" x2="15.390625" y2="114.78380384676302" style="visibility: inherit;" fill="rgb(0, 0, 0)" stroke="rgb(204, 204, 204)" stroke-width="1px"></line><line x1="20.390625" y1="93.54620559750282" x2="15.390625" y2="93.54620559750282" style="visibility: inherit;" fill="rgb(0, 0, 0)" stroke="rgb(204, 204, 204)" stroke-width="1px"></line><line x1="20.390625" y1="72.30860734824262" x2="15.390625" y2="72.30860734824262" style="visibility: inherit;" fill="rgb(0, 0, 0)" stroke="rgb(204, 204, 204)" stroke-width="1px"></line><line x1="20.390625" y1="51.07100909898242" x2="15.390625" y2="51.07100909898242" style="visibility: inherit;" fill="rgb(0, 0, 0)" stroke="rgb(204, 204, 204)" stroke-width="1px"></line><line x1="20.390625" y1="29.83341084972222" x2="15.390625" y2="29.83341084972222" style="visibility: inherit;" fill="rgb(0, 0, 0)" stroke="rgb(204, 204, 204)" stroke-width="1px"></line><line x1="20.390625" y1="8.595812600462033" x2="15.390625" y2="8.595812600462033" style="visibility: inherit;" fill="rgb(0, 0, 0)" stroke="rgb(204, 204, 204)" stroke-width="1px"></line></g><g transform="translate(10.390625, 0)"><text x="0" y="157.2590003452834" dx="0em" dy="0.3em" style="text-anchor: end; visibility: inherit; font-family: Roboto, sans-serif; font-size: 12px; font-weight: 200;" fill="rgb(50, 49, 63)" stroke="none" stroke-width="1px">0</text><text x="0" y="136.0214020960232" dx="0em" dy="0.3em" style="text-anchor: end; visibility: hidden; font-family: Roboto, sans-serif; font-size: 12px; font-weight: 200;" fill="rgb(50, 49, 63)" stroke="none" stroke-width="1px">1</text><text x="0" y="114.78380384676302" dx="0em" dy="0.3em" style="text-anchor: end; visibility: inherit; font-family: Roboto, sans-serif; font-size: 12px; font-weight: 200;" fill="rgb(50, 49, 63)" stroke="none" stroke-width="1px">2</text><text x="0" y="93.54620559750282" dx="0em" dy="0.3em" style="text-anchor: end; visibility: hidden; font-family: Roboto, sans-serif; font-size: 12px; font-weight: 200;" fill="rgb(50, 49, 63)" stroke="none" stroke-width="1px">3</text><text x="0" y="72.30860734824262" dx="0em" dy="0.3em" style="text-anchor: end; visibility: inherit; font-family: Roboto, sans-serif; font-size: 12px; font-weight: 200;" fill="rgb(50, 49, 63)" stroke="none" stroke-width="1px">4</text><text x="0" y="51.07100909898242" dx="0em" dy="0.3em" style="text-anchor: end; visibility: hidden; font-family: Roboto, sans-serif; font-size: 12px; font-weight: 200;" fill="rgb(50, 49, 63)" stroke="none" stroke-width="1px">5</text><text x="0" y="29.83341084972222" dx="0em" dy="0.3em" style="text-anchor: end; visibility: inherit; font-family: Roboto, sans-serif; font-size: 12px; font-weight: 200;" fill="rgb(50, 49, 63)" stroke="none" stroke-width="1px">6</text><text x="0" y="8.595812600462033" dx="0em" dy="0.3em" style="text-anchor: end; visibility: hidden; font-family: Roboto, sans-serif; font-size: 12px; font-weight: 200;" fill="rgb(50, 49, 63)" stroke="none" stroke-width="1px">7</text></g><line x1="20.390625" y1="0" x2="20.390625" y2="178" fill="rgb(0, 0, 0)" stroke="rgb(204, 204, 204)" stroke-width="1px"></line></g></g><g transform="translate(20, 0)" clip-path="url(#clip_0)"><clipPath id="clip_0"><rect width="309" height="177"></rect></clipPath><g><g><g><line x1="23.209947736416325" y1="0" x2="23.209947736416325" y2="178" fill="rgb(0, 0, 0)" stroke="rgb(60, 60, 60)" stroke-width="1px" opacity="0.25"></line><line x1="69.38522526769725" y1="0" x2="69.38522526769725" y2="178" fill="rgb(0, 0, 0)" stroke="rgb(60, 60, 60)" stroke-width="1px" opacity="0.25"></line><line x1="115.56050279897818" y1="0" x2="115.56050279897818" y2="178" fill="rgb(0, 0, 0)" stroke="rgb(60, 60, 60)" stroke-width="1px" opacity="0.25"></line><line x1="161.73578033025908" y1="0" x2="161.73578033025908" y2="178" fill="rgb(0, 0, 0)" stroke="rgb(60, 60, 60)" stroke-width="1px" opacity="0.25"></line><line x1="207.91105786153997" y1="0" x2="207.91105786153997" y2="178" fill="rgb(0, 0, 0)" stroke="rgb(60, 60, 60)" stroke-width="1px" opacity="0.25"></line><line x1="254.0863353928209" y1="0" x2="254.0863353928209" y2="178" fill="rgb(0, 0, 0)" stroke="rgb(60, 60, 60)" stroke-width="1px" opacity="0.25"></line><line x1="300.2616129241018" y1="0" x2="300.2616129241018" y2="178" fill="rgb(0, 0, 0)" stroke="rgb(60, 60, 60)" stroke-width="1px" opacity="0.25"></line></g><g><line x1="0" y1="157.2590003452834" x2="309.609375" y2="157.2590003452834" fill="rgb(0, 0, 0)" stroke="rgb(60, 60, 60)" stroke-width="1px" opacity="0.25"></line><line x1="0" y1="136.0214020960232" x2="309.609375" y2="136.0214020960232" fill="rgb(0, 0, 0)" stroke="rgb(60, 60, 60)" stroke-width="1px" opacity="0.25"></line><line x1="0" y1="114.78380384676302" x2="309.609375" y2="114.78380384676302" fill="rgb(0, 0, 0)" stroke="rgb(60, 60, 60)" stroke-width="1px" opacity="0.25"></line><line x1="0" y1="93.54620559750282" x2="309.609375" y2="93.54620559750282" fill="rgb(0, 0, 0)" stroke="rgb(60, 60, 60)" stroke-width="1px" opacity="0.25"></line><line x1="0" y1="72.30860734824262" x2="309.609375" y2="72.30860734824262" fill="rgb(0, 0, 0)" stroke="rgb(60, 60, 60)" stroke-width="1px" opacity="0.25"></line><line x1="0" y1="51.07100909898242" x2="309.609375" y2="51.07100909898242" fill="rgb(0, 0, 0)" stroke="rgb(60, 60, 60)" stroke-width="1px" opacity="0.25"></line><line x1="0" y1="29.83341084972222" x2="309.609375" y2="29.83341084972222" fill="rgb(0, 0, 0)" stroke="rgb(60, 60, 60)" stroke-width="1px" opacity="0.25"></line><line x1="0" y1="8.595812600462033" x2="309.609375" y2="8.595812600462033" fill="rgb(0, 0, 0)" stroke="rgb(60, 60, 60)" stroke-width="1px" opacity="0.25"></line></g></g></g><g><g><line x1="0" y1="157.2590003452834" x2="309.609375" y2="157.2590003452834" fill="rgb(0, 0, 0)" stroke="rgb(153, 153, 153)" stroke-width="1.5px"></line></g></g><g><g><line x1="23.209947736416325" y1="0" x2="23.209947736416325" y2="178" fill="rgb(0, 0, 0)" stroke="rgb(153, 153, 153)" stroke-width="1.5px"></line></g></g><g><g><g><g><g><path style="fill: none;" stroke="rgb(255, 112, 67)" stroke-width="2px" d="M24.99231344912377,-36.66484837078864L27.181021604106483,6.6997413684905585L29.369729759089203,36.60887932183348L31.539967803059405,50.7310378912098L33.719440902535865,62.433718623409526L35.871208835493555,67.4453770610826L38.059916990476275,74.98024523840715L40.22091997894022,83.28384054678313L42.400393078416684,89.5742694781164L44.5891012333994,93.30366432929074L46.74086916635709,95.77167071592173L48.92034226583354,96.67058439320348L51.09058030980375,95.72068007967836L53.26081835377395,98.99016007222961L55.44952650875667,101.50896766408329L57.61052949722061,101.21854608294335L59.79000259669707,101.70582803139143L61.97871075167979,104.96079453833023L64.1674189066625,106.12356512433801L66.34689200613896,108.37363395817856L68.49865993909665,108.99501294013665L70.69660314958563,107.69434962618601L72.8760762490621,110.40151041378948L75.0647844040448,112.97823285062913L77.24425750352125,113.20239775835202L79.4052604919852,112.04216650771818L81.58473359146167,111.48134107251683L83.76420669093812,115.11375535697336L85.94367979041459,116.11570864817818L88.12315288989105,116.9785842813765L90.28415587835501,119.10706579586459L92.46362897783145,119.57610508685444L94.6431020773079,117.6360093628884L96.82257517678438,118.09681415466682L99.00204827626082,119.70806530367794L101.16305126472479,119.68308631089594L103.33328930869497,119.70514805260348L105.51276240817144,120.84960491617082L107.6922355076479,120.62560797203821L109.86247355161811,121.86922395553246L112.02347654008204,122.19469714836895L114.20294963955851,120.81306632673443L116.39165779454123,122.03169817955067L118.55266078300518,119.00508937006133L120.72289882697538,119.68811560714852L122.5514398172141,120.10285338254747L124.80479336074062,121.92635987848787L127.04891184876085,122.06513634067758L129.28379528127485,121.51900246646625L131.5094436582826,122.77813674914884L133.71662192427783,120.80332702696927L135.9330352457793,118.56109055648142L138.12174340076203,117.22574202605358L140.29198144473222,117.9384401885788L142.45298443319618,119.76406997575998L144.6047523661539,119.33605792535289L146.79346052113658,119.44609944082677L148.97293362061305,119.98027565409997L151.15240672008952,117.69972122038556L153.33187981956596,114.51926771362713L155.50211786353614,115.3863586123869L157.70929612953137,116.70130289956785L159.90723934002034,118.61201151582976L162.09594749500306,118.16635063107799L164.31236081650457,118.72914868622262L166.5103040269935,120.08506888028182L168.70824723748248,120.10873760131057L170.90619044797148,120.35106778133208L173.1133687139667,121.1459753319537L175.32054697996193,121.84300709215856L177.50925513494465,122.70171779429224L179.70719834543362,123.50692063923077L181.90514155592257,123.79405234158135L184.1123198219178,123.85197121234606L186.3102630324068,123.60489661475845L188.4989711873895,123.83214623035046L190.7061494533847,124.46074134691233L192.92256277488622,124.8638433022834L195.12974104088144,125.8761088731865L197.32768425137039,126.3054751520724L199.5163924063531,126.28248698314539L201.70510056133585,124.86737356141056L203.91227882733108,122.70975367772557L206.11022203782002,122.25554819153774L208.31740030381525,123.25078025050539" fill="none"></path></g></g></g></g><g opacity="0.2"><g><g><g><path style="fill: none;" stroke="rgb(255, 112, 67)" stroke-width="2px" d="M23.21918279192258,-160.3900506548635L24.99231344912377,64.29491669301648L27.181021604106483,70.95981886117981L29.369729759089203,97.18070088504825L31.539967803059405,85.59241541379441L33.719440902535865,95.55632972149988L35.871208835493555,83.10961935267301L38.059916990476275,100.34605851519201L40.22091997894022,112.86979390284627L42.400393078416684,112.99625326684927L44.5891012333994,107.67794711709553L46.74086916635709,105.5477536878491L48.92034226583354,100.30963720567156L51.09058030980375,91.80764884365885L53.26081835377395,112.6481722851066L55.44952650875667,112.15037556863558L57.61052949722061,99.9803567692159L59.79000259669707,103.79868017328305L61.97871075167979,119.0244635508152L64.1674189066625,111.17193706363118L66.34689200613896,118.18124922098852L68.49865993909665,111.71217045396442L70.69660314958563,101.9919897977364L72.8760762490621,122.29542677556671L75.0647844040448,124.31863988678892L77.24425750352125,114.19035878650755L79.4052604919852,106.92281635468412L81.58473359146167,109.0044666038426L83.76420669093812,131.16847400095753L85.94367979041459,120.54694315152746L88.12315288989105,120.79666938187567L90.28415587835501,128.5291468175623L92.46362897783145,121.65308662628242L94.6431020773079,109.04258922853043L96.82257517678438,120.13835155398829L99.00204827626082,126.84781703997308L101.16305126472479,119.5723832400296L103.33328930869497,119.80293423067893L105.51276240817144,125.9227851472538L107.6922355076479,119.63258751782723L109.86247355161811,127.38277179619328L112.02347654008204,123.63775431574393L114.20294963955851,114.68703141974298L116.39165779454123,127.4352036966638L118.55266078300518,105.58448386708746L120.72289882697538,122.71686684702611L122.5514398172141,121.94196589095107L124.80479336074062,130.01264300912703L127.04891184876085,122.6805442745466L129.28379528127485,119.0971314812452L131.5094436582826,128.36190905564146L133.71662192427783,112.04574974928047L135.9330352457793,108.6175136085884L138.12174340076203,111.30388519442413L140.29198144473222,121.09904777224729L142.45298443319618,127.86022868222588L144.6047523661539,117.43793905458374L146.79346052113658,119.93410512373919L148.97293362061305,122.34921314570173L151.15240672008952,107.58602040023969L153.33187981956596,100.4147187344465L155.50211786353614,119.2317024729212L157.70929612953137,122.53277543172854L159.90723934002034,127.08556570773672L162.09594749500306,116.1899458960305L164.31236081650457,121.22503117307848L166.5103040269935,126.0982712496736L168.70824723748248,120.21370310655729L170.90619044797148,121.4257483870429L173.1133687139667,124.67121466975487L175.32054697996193,124.93418938562516L177.50925513494465,126.50991103688764L179.70719834543362,127.07781864759961L181.90514155592257,125.06741856623165L184.1123198219178,124.10882873817987L186.3102630324068,122.50917474721929L188.4989711873895,124.83994867760418L190.7061494533847,127.24842359578922L192.92256277488622,126.65151261222401L195.12974104088144,130.365286148506L197.32768425137039,128.20962109441004L199.5163924063531,126.18053945854804L201.70510056133585,118.59165352933104L203.91227882733108,113.14117898923139L206.11022203782002,120.24124567754806L208.31740030381525,127.66441793968163" fill="none"></path></g></g></g></g></g></g><g transform="translate(20, 178)" clip-path="url(#clip_1)"><clipPath id="clip_1"><rect width="309" height="21"></rect></clipPath><g><g><line x1="23.209947736416325" y1="0" x2="23.209947736416325" y2="5" style="visibility: inherit;" fill="rgb(0, 0, 0)" stroke="rgb(204, 204, 204)" stroke-width="1px"></line><line x1="69.38522526769725" y1="0" x2="69.38522526769725" y2="5" style="visibility: inherit;" fill="rgb(0, 0, 0)" stroke="rgb(204, 204, 204)" stroke-width="1px"></line><line x1="115.56050279897818" y1="0" x2="115.56050279897818" y2="5" style="visibility: inherit;" fill="rgb(0, 0, 0)" stroke="rgb(204, 204, 204)" stroke-width="1px"></line><line x1="161.73578033025908" y1="0" x2="161.73578033025908" y2="5" style="visibility: inherit;" fill="rgb(0, 0, 0)" stroke="rgb(204, 204, 204)" stroke-width="1px"></line><line x1="207.91105786153997" y1="0" x2="207.91105786153997" y2="5" style="visibility: inherit;" fill="rgb(0, 0, 0)" stroke="rgb(204, 204, 204)" stroke-width="1px"></line><line x1="254.0863353928209" y1="0" x2="254.0863353928209" y2="5" style="visibility: inherit;" fill="rgb(0, 0, 0)" stroke="rgb(204, 204, 204)" stroke-width="1px"></line><line x1="300.2616129241018" y1="0" x2="300.2616129241018" y2="5" style="visibility: inherit;" fill="rgb(0, 0, 0)" stroke="rgb(204, 204, 204)" stroke-width="1px"></line></g><g transform="translate(0, 8)"><text x="23.209947736416325" y="0" dx="0em" dy="0.95em" style="text-anchor: middle; visibility: inherit; font-family: Roboto, sans-serif; font-size: 12px; font-weight: 200;" fill="rgb(50, 49, 63)" stroke="none" stroke-width="1px">0</text><text x="69.38522526769725" y="0" dx="0em" dy="0.95em" style="text-anchor: middle; visibility: inherit; font-family: Roboto, sans-serif; font-size: 12px; font-weight: 200;" fill="rgb(50, 49, 63)" stroke="none" stroke-width="1px">5k</text><text x="115.56050279897818" y="0" dx="0em" dy="0.95em" style="text-anchor: middle; visibility: inherit; font-family: Roboto, sans-serif; font-size: 12px; font-weight: 200;" fill="rgb(50, 49, 63)" stroke="none" stroke-width="1px">10k</text><text x="161.73578033025908" y="0" dx="0em" dy="0.95em" style="text-anchor: middle; visibility: inherit; font-family: Roboto, sans-serif; font-size: 12px; font-weight: 200;" fill="rgb(50, 49, 63)" stroke="none" stroke-width="1px">15k</text><text x="207.91105786153997" y="0" dx="0em" dy="0.95em" style="text-anchor: middle; visibility: inherit; font-family: Roboto, sans-serif; font-size: 12px; font-weight: 200;" fill="rgb(50, 49, 63)" stroke="none" stroke-width="1px">20k</text><text x="254.0863353928209" y="0" dx="0em" dy="0.95em" style="text-anchor: middle; visibility: inherit; font-family: Roboto, sans-serif; font-size: 12px; font-weight: 200;" fill="rgb(50, 49, 63)" stroke="none" stroke-width="1px">25k</text><text x="300.2616129241018" y="0" dx="0em" dy="0.95em" style="text-anchor: middle; visibility: inherit; font-family: Roboto, sans-serif; font-size: 12px; font-weight: 200;" fill="rgb(50, 49, 63)" stroke="none" stroke-width="1px">30k</text></g><line x1="0" y1="0" x2="309.609375" y2="0" fill="rgb(0, 0, 0)" stroke="rgb(204, 204, 204)" stroke-width="1px"></line></g></g></g></g></svg>