<svg viewBox="0 0 330 200" xmlns="http://www.w3.org/2000/svg"><g><g><g><g><g><line x1="51.5625" y1="175.26078861901496" x2="46.5625" y2="175.26078861901496" style="visibility: inherit;" fill="rgb(0, 0, 0)" stroke="rgb(204, 204, 204)" stroke-width="1px"></line><line x1="51.5625" y1="150.74212457191211" x2="46.5625" y2="150.74212457191211" style="visibility: inherit;" fill="rgb(0, 0, 0)" stroke="rgb(204, 204, 204)" stroke-width="1px"></line><line x1="51.5625" y1="126.22346052480925" x2="46.5625" y2="126.22346052480925" style="visibility: inherit;" fill="rgb(0, 0, 0)" stroke="rgb(204, 204, 204)" stroke-width="1px"></line><line x1="51.5625" y1="101.70479647770641" x2="46.5625" y2="101.70479647770641" style="visibility: inherit;" fill="rgb(0, 0, 0)" stroke="rgb(204, 204, 204)" stroke-width="1px"></line><line x1="51.5625" y1="77.18613243060358" x2="46.5625" y2="77.18613243060358" style="visibility: inherit;" fill="rgb(0, 0, 0)" stroke="rgb(204, 204, 204)" stroke-width="1px"></line><line x1="51.5625" y1="52.667468383500726" x2="46.5625" y2="52.667468383500726" style="visibility: inherit;" fill="rgb(0, 0, 0)" stroke="rgb(204, 204, 204)" stroke-width="1px"></line><line x1="51.5625" y1="28.148804336397873" x2="46.5625" y2="28.148804336397873" style="visibility: inherit;" fill="rgb(0, 0, 0)" stroke="rgb(204, 204, 204)" stroke-width="1px"></line><line x1="51.5625" y1="3.630140289295045" x2="46.5625" y2="3.630140289295045" style="visibility: inherit;" fill="rgb(0, 0, 0)" stroke="rgb(204, 204, 204)" stroke-width="1px"></line></g><g transform="translate(41.5625, 0)"><text x="0" y="175.26078861901496" dx="0em" dy="0.3em" style="text-anchor: end; visibility: hidden; font-family: Roboto, sans-serif; font-size: 12px; font-weight: 200;" fill="rgb(50, 49, 63)" stroke="none" stroke-width="1px">-0.2</text><text x="0" y="150.74212457191211" dx="0em" dy="0.3em" style="text-anchor: end; visibility: inherit; font-family: Roboto, sans-serif; font-size: 12px; font-weight: 200;" fill="rgb(50, 49, 63)" stroke="none" stroke-width="1px">0</text><text x="0" y="126.22346052480925" dx="0em" dy="0.3em" style="text-anchor: end; visibility: inherit; font-family: Roboto, sans-serif; font-size: 12px; font-weight: 200;" fill="rgb(50, 49, 63)" stroke="none" stroke-width="1px">0.2</text><text x="0" y="101.70479647770641" dx="0em" dy="0.3em" style="text-anchor: end; visibility: inherit; font-family: Roboto, sans-serif; font-size: 12px; font-weight: 200;" fill="rgb(50, 49, 63)" stroke="none" stroke-width="1px">0.4</text><text x="0" y="77.18613243060358" dx="0em" dy="0.3em" style="text-anchor: end; visibility: inherit; font-family: Roboto, sans-serif; font-size: 12px; font-weight: 200;" fill="rgb(50, 49, 63)" stroke="none" stroke-width="1px">0.6</text><text x="0" y="52.667468383500726" dx="0em" dy="0.3em" style="text-anchor: end; visibility: inherit; font-family: Roboto, sans-serif; font-size: 12px; font-weight: 200;" fill="rgb(50, 49, 63)" stroke="none" stroke-width="1px">0.8</text><text x="0" y="28.148804336397873" dx="0em" dy="0.3em" style="text-anchor: end; visibility: inherit; font-family: Roboto, sans-serif; font-size: 12px; font-weight: 200;" fill="rgb(50, 49, 63)" stroke="none" stroke-width="1px">1</text><text x="0" y="3.630140289295045" dx="0em" dy="0.3em" style="text-anchor: end; visibility: hidden; font-family: Roboto, sans-serif; font-size: 12px; font-weight: 200;" fill="rgb(50, 49, 63)" stroke="none" stroke-width="1px">1.2</text></g><line x1="51.5625" y1="0" x2="51.5625" y2="178" fill="rgb(0, 0, 0)" stroke="rgb(204, 204, 204)" stroke-width="1px"></line></g></g><g transform="translate(51, 0)" clip-path="url(#clip_0)"><clipPath id="clip_0"><rect width="278" height="177"></rect></clipPath><g><g><g><line x1="28.845075258758115" y1="0" x2="28.845075258758115" y2="178" fill="rgb(0, 0, 0)" stroke="rgb(60, 60, 60)" stroke-width="1px" opacity="0.25"></line><line x1="64.80144211593067" y1="0" x2="64.80144211593067" y2="178" fill="rgb(0, 0, 0)" stroke="rgb(60, 60, 60)" stroke-width="1px" opacity="0.25"></line><line x1="100.75780897310324" y1="0" x2="100.75780897310324" y2="178" fill="rgb(0, 0, 0)" stroke="rgb(60, 60, 60)" stroke-width="1px" opacity="0.25"></line><line x1="136.7141758302758" y1="0" x2="136.7141758302758" y2="178" fill="rgb(0, 0, 0)" stroke="rgb(60, 60, 60)" stroke-width="1px" opacity="0.25"></line><line x1="172.67054268744837" y1="0" x2="172.67054268744837" y2="178" fill="rgb(0, 0, 0)" stroke="rgb(60, 60, 60)" stroke-width="1px" opacity="0.25"></line><line x1="208.62690954462093" y1="0" x2="208.62690954462093" y2="178" fill="rgb(0, 0, 0)" stroke="rgb(60, 60, 60)" stroke-width="1px" opacity="0.25"></line><line x1="244.5832764017935" y1="0" x2="244.5832764017935" y2="178" fill="rgb(0, 0, 0)" stroke="rgb(60, 60, 60)" stroke-width="1px" opacity="0.25"></line></g><g><line x1="0" y1="175.26078861901496" x2="278.4375" y2="175.26078861901496" fill="rgb(0, 0, 0)" stroke="rgb(60, 60, 60)" stroke-width="1px" opacity="0.25"></line><line x1="0" y1="150.74212457191211" x2="278.4375" y2="150.74212457191211" fill="rgb(0, 0, 0)" stroke="rgb(60, 60, 60)" stroke-width="1px" opacity="0.25"></line><line x1="0" y1="126.22346052480925" x2="278.4375" y2="126.22346052480925" fill="rgb(0, 0, 0)" stroke="rgb(60, 60, 60)" stroke-width="1px" opacity="0.25"></line><line x1="0" y1="101.70479647770641" x2="278.4375" y2="101.70479647770641" fill="rgb(0, 0, 0)" stroke="rgb(60, 60, 60)" stroke-width="1px" opacity="0.25"></line><line x1="0" y1="77.18613243060358" x2="278.4375" y2="77.18613243060358" fill="rgb(0, 0, 0)" stroke="rgb(60, 60, 60)" stroke-width="1px" opacity="0.25"></line><line x1="0" y1="52.667468383500726" x2="278.4375" y2="52.667468383500726" fill="rgb(0, 0, 0)" stroke="rgb(60, 60, 60)" stroke-width="1px" opacity="0.25"></line><line x1="0" y1="28.148804336397873" x2="278.4375" y2="28.148804336397873" fill="rgb(0, 0, 0)" stroke="rgb(60, 60, 60)" stroke-width="1px" opacity="0.25"></line><line x1="0" y1="3.630140289295045" x2="278.4375" y2="3.630140289295045" fill="rgb(0, 0, 0)" stroke="rgb(60, 60, 60)" stroke-width="1px" opacity="0.25"></line></g></g></g><g><g><line x1="0" y1="150.74212457191211" x2="278.4375" y2="150.74212457191211" fill="rgb(0, 0, 0)" stroke="rgb(153, 153, 153)" stroke-width="1.5px"></line></g></g><g><g><line x1="28.845075258758115" y1="0" x2="28.845075258758115" y2="178" fill="rgb(0, 0, 0)" stroke="rgb(153, 153, 153)" stroke-width="1.5px"></line></g></g><g><g><g><g><g><path stroke="rgb(255, 112, 67)" stroke-width="2px" d="M30.23299101944498,-43.03872108389249L31.937322808474956,3.3018543332665073L33.64165459750494,40.944718888748554L35.331603839792045,56.778682467489325L37.02874435545059,68.03667486059595L38.70431105099484,79.54629628154898L40.40864284002481,88.98310148332224L42.09140080894049,97.77100156122823L43.78854132459903,103.15487367267528L45.49287311362902,107.85915370628771L47.16843980917326,111.1369084226897L48.8655803248318,113.02235988215581L50.55552956711891,112.09096067161774L52.24547880940602,116.71533535097132L53.949810598436,118.94374301296915L55.632568567351676,117.5333496407314L57.32970908301022,121.05904364805244L59.034040872040194,124.68995951924884L60.73837266107017,127.48995250729948L62.43551317672872,129.1829813367131L64.11107987227297,130.57001266923996L65.82260293467438,131.79555978714646L67.51974345033291,133.7450375977651L69.22407523936289,134.76678092038594L70.92121575502144,133.03687838891645L72.60397372393712,132.35975582923462L74.30111423959566,133.39154927845567L75.99825475525421,135.10060874014368L77.69539527091275,136.39820687167264L79.39253578657129,137.3145955613021L81.07529375548697,137.86835876245914L82.77243427114551,138.32998444840922L84.46957478680406,138.81834827445243L86.16671530246262,137.96708019460002L87.86385581812115,138.23258088131533L89.54661378703682,139.1694743556318L91.23656302932395,139.2243548459819L92.93370354498249,139.1835764028639L94.63084406064102,139.47858559490282L96.32079330292815,139.95736100309935L98.00355127184382,140.65560144082565L99.70069178750235,139.99267025938596L101.40502357653234,140.97579693620392L103.08778154544802,140.1155646141968L104.77773078773512,140.22623139122825L106.20160291527917,140.17053011810768L107.95627361790919,140.99419653630366L109.70375304716777,140.9027224206532L111.44404120305492,140.86153625000762L113.17713808557063,141.58790028641425L114.89585242134349,141.84972316127306L116.62175803048777,140.69844426300597L118.32608981951775,141.22813116382233L120.01603906180486,140.9984467631488L121.69879703072054,141.16216096033588L123.37436372626479,141.45842431617092L125.07869551529477,140.2725527753673L126.7758360309533,140.84226380418312L128.47297654661185,140.69427233419913L130.1701170622704,140.0098206587304L131.8600663045575,140.9632837290458L133.57878064033036,141.34797310977578L135.29030370273176,142.0095636862003L136.99463549176173,140.88517386591263L138.72054110090605,141.75407160912744L140.43206416330744,142.43159919014428L142.14358722570884,142.47614524081152L143.85511028811027,143.04674117465166L145.5738246238831,143.76213186072272L147.29253895965596,143.92561443141582L148.99687074868595,144.19303023594682L150.70839381108738,144.7715300834667L152.41991687348877,145.12570066795604L154.13863120926163,144.84732746275375L155.85015427166303,144.3751200820219L157.55448606069302,144.91343716847862L159.27320039646588,145.0615888534958L160.99910600561014,144.74926186793908L162.717820341383,144.80772609870348L164.4293434037844,144.65826539718248L166.1336751928144,145.00835354683835L167.83800698184436,144.65661709882255L169.55672131761722,142.90638668240453L171.26824438001864,142.31452645022645L172.98695871579147,142.7884648942441" style="fill: none;" fill="none"></path></g></g></g></g><g opacity="0.2"><g><g><g><path style="fill: none;" stroke="rgb(255, 112, 67)" stroke-width="2px" d="M28.85226653212955,-159.00231948953478L30.23299101944498,51.587575215111535L31.937322808474956,71.97191405863613L33.64165459750494,117.17884100018426L35.331603839792045,95.86575115359848L37.02874435545059,99.90066502791876L38.70431105099484,115.52031583304833L40.40864284002481,120.75170486751159L42.09140080894049,129.0825469999136L43.78854132459903,123.20135487315461L45.49287311362902,125.99095637525846L47.16843980917326,124.12050613246456L48.8655803248318,120.65519227724212L50.55552956711891,108.25415926736464L52.24547880940602,136.03332047136493L53.949810598436,128.35827510571116L55.632568567351676,111.52024966791909L57.32970908301022,136.20172701314772L59.034040872040194,140.37798546846466L60.73837266107017,139.64661195602568L62.43551317672872,136.56256685783381L64.11107987227297,136.63520430995735L65.82260293467438,137.1685956666587L67.51974345033291,142.31007227720323L69.22407523936289,139.2635730464366L70.92121575502144,125.41268644486787L72.60397372393712,129.3720518886312L74.30111423959566,137.94844468817158L75.99825475525421,142.65439161140134L77.69539527091275,142.13695902946895L79.39253578657129,141.36946728038336L81.07529375548697,140.3196846079605L82.77243427114551,140.37413735044146L84.46957478680406,140.98149697055516L86.16671530246262,134.1956445392544L87.86385581812115,139.40906351105713L89.54661378703682,143.32164276316504L91.23656302932395,139.46760642028576L92.93370354498249,139.00281258548796L94.63084406064102,140.78641665933682L96.32079330292815,142.08000268112482L98.00355127184382,143.75140438370636L99.70069178750235,137.05328913467412L101.40502357653234,145.33505474645244L103.08778154544802,136.30111769975977L104.77773078773512,140.71696237628777L106.20160291527917,139.92352848428848L107.95627361790919,144.6467197807011L109.70375304716777,140.4970780078564L111.44404120305492,140.67889313558288L113.17713808557063,144.8090431356729L114.89585242134349,143.0108142952139L116.62175803048777,135.59290322659888L118.32608981951775,143.57712838870324L120.01603906180486,139.97986372647173L121.69879703072054,141.88818774420815L123.37436372626479,142.77227299377935L125.07869551529477,135.01351895868433L126.7758360309533,143.3687892877329L128.47297654661185,140.03796638103927L130.1701170622704,136.97444153433318L131.8600663045575,145.1916678222562L133.57878064033036,143.05398117339507L135.29030370273176,144.94356605290116L136.99463549176173,135.89876056178446L138.72054110090605,145.60743719974084L140.43206416330744,145.43628226319615L142.14358722570884,142.67369705230777L143.85511028811027,145.57720759753423L145.5738246238831,146.93473147493208L147.29253895965596,144.6506236156005L148.99687074868595,145.3789605582868L150.70839381108738,147.33705002212017L152.41991687348877,146.69636965491023L154.13863120926163,143.6128031738188L155.85015427166303,142.28098350087154L157.55448606069302,147.30075595762656L159.27320039646588,145.7186092654942L160.99910600561014,143.36415976335581L162.717820341383,145.06700222515767L164.4293434037844,143.99543973449045L166.1336751928144,146.5609182753106L167.83800698184436,143.09674250578885L169.55672131761722,135.14449563375138L171.26824438001864,139.68975508603012L172.98695871579147,144.8902787978633" fill="none"></path></g></g></g></g></g></g><g transform="translate(51, 178)" clip-path="url(#clip_1)"><clipPath id="clip_1"><rect width="278" height="21"></rect></clipPath><g><g><line x1="28.845075258758115" y1="0" x2="28.845075258758115" y2="5" style="visibility: inherit;" fill="rgb(0, 0, 0)" stroke="rgb(204, 204, 204)" stroke-width="1px"></line><line x1="64.80144211593067" y1="0" x2="64.80144211593067" y2="5" style="visibility: inherit;" fill="rgb(0, 0, 0)" stroke="rgb(204, 204, 204)" stroke-width="1px"></line><line x1="100.75780897310324" y1="0" x2="100.75780897310324" y2="5" style="visibility: inherit;" fill="rgb(0, 0, 0)" stroke="rgb(204, 204, 204)" stroke-width="1px"></line><line x1="136.7141758302758" y1="0" x2="136.7141758302758" y2="5" style="visibility: inherit;" fill="rgb(0, 0, 0)" stroke="rgb(204, 204, 204)" stroke-width="1px"></line><line x1="172.67054268744837" y1="0" x2="172.67054268744837" y2="5" style="visibility: inherit;" fill="rgb(0, 0, 0)" stroke="rgb(204, 204, 204)" stroke-width="1px"></line><line x1="208.62690954462093" y1="0" x2="208.62690954462093" y2="5" style="visibility: inherit;" fill="rgb(0, 0, 0)" stroke="rgb(204, 204, 204)" stroke-width="1px"></line><line x1="244.5832764017935" y1="0" x2="244.5832764017935" y2="5" style="visibility: inherit;" fill="rgb(0, 0, 0)" stroke="rgb(204, 204, 204)" stroke-width="1px"></line></g><g transform="translate(0, 8)"><text x="28.845075258758115" y="0" dx="0em" dy="0.95em" style="text-anchor: middle; visibility: inherit; font-family: Roboto, sans-serif; font-size: 12px; font-weight: 200;" fill="rgb(50, 49, 63)" stroke="none" stroke-width="1px">0</text><text x="64.80144211593067" y="0" dx="0em" dy="0.95em" style="text-anchor: middle; visibility: inherit; font-family: Roboto, sans-serif; font-size: 12px; font-weight: 200;" fill="rgb(50, 49, 63)" stroke="none" stroke-width="1px">5k</text><text x="100.75780897310324" y="0" dx="0em" dy="0.95em" style="text-anchor: middle; visibility: inherit; font-family: Roboto, sans-serif; font-size: 12px; font-weight: 200;" fill="rgb(50, 49, 63)" stroke="none" stroke-width="1px">10k</text><text x="136.7141758302758" y="0" dx="0em" dy="0.95em" style="text-anchor: middle; visibility: inherit; font-family: Roboto, sans-serif; font-size: 12px; font-weight: 200;" fill="rgb(50, 49, 63)" stroke="none" stroke-width="1px">15k</text><text x="172.67054268744837" y="0" dx="0em" dy="0.95em" style="text-anchor: middle; visibility: inherit; font-family: Roboto, sans-serif; font-size: 12px; font-weight: 200;" fill="rgb(50, 49, 63)" stroke="none" stroke-width="1px">20k</text><text x="208.62690954462093" y="0" dx="0em" dy="0.95em" style="text-anchor: middle; visibility: inherit; font-family: Roboto, sans-serif; font-size: 12px; font-weight: 200;" fill="rgb(50, 49, 63)" stroke="none" stroke-width="1px">25k</text><text x="244.5832764017935" y="0" dx="0em" dy="0.95em" style="text-anchor: middle; visibility: inherit; font-family: Roboto, sans-serif; font-size: 12px; font-weight: 200;" fill="rgb(50, 49, 63)" stroke="none" stroke-width="1px">30k</text></g><line x1="0" y1="0" x2="278.4375" y2="0" fill="rgb(0, 0, 0)" stroke="rgb(204, 204, 204)" stroke-width="1px"></line></g></g></g></g></svg>